<mxfile host="app.diagrams.net" modified="2023-07-11T10:31:05.350Z" agent="Mozilla/5.0 (Windows NT 10.0; Win64; x64) AppleWebKit/537.36 (KHTML, like Gecko) Chrome/114.0.0.0 Safari/537.36" version="21.6.1" etag="_vDNNOcQPwx4EkAVeD3f" type="github">
  <diagram name="Page-1" id="tlolGhrRIqLcQmdW0PF3">
    <mxGraphModel>
      <root>
        <mxCell id="0" />
        <mxCell id="1" parent="0" />
      </root>
    </mxGraphModel>
  </diagram>
</mxfile>
